<svg width="34" height="34" viewBox="0 0 34 34" fill="none" xmlns="http://www.w3.org/2000/svg">
<path d="M4.77067 27.3182C8.50119 25.2096 12.7148 24.1046 17 24.1111C21.4444 24.1111 25.6169 25.2756 29.2293 27.3182M22.3333 13.4444C22.3333 14.8589 21.7714 16.2155 20.7712 17.2157C19.771 18.2159 18.4145 18.7778 17 18.7778C15.5855 18.7778 14.229 18.2159 13.2288 17.2157C12.2286 16.2155 11.6667 14.8589 11.6667 13.4444C11.6667 12.03 12.2286 10.6734 13.2288 9.67321C14.229 8.67301 15.5855 8.11111 17 8.11111C18.4145 8.11111 19.771 8.67301 20.7712 9.67321C21.7714 10.6734 22.3333 12.03 22.3333 13.4444ZM33 17C33 19.1012 32.5861 21.1817 31.7821 23.1229C30.978 25.0641 29.7994 26.828 28.3137 28.3137C26.828 29.7994 25.0641 30.978 23.1229 31.7821C21.1817 32.5861 19.1012 33 17 33C14.8989 33 12.8183 32.5861 10.8771 31.7821C8.93586 30.978 7.17203 29.7994 5.68629 28.3137C4.20055 26.828 3.022 25.0641 2.21793 23.1229C1.41385 21.1817 1 19.1012 1 17C1 12.7565 2.68571 8.68687 5.68629 5.68629C8.68687 2.68571 12.7565 1 17 1C21.2435 1 25.3131 2.68571 28.3137 5.68629C31.3143 8.68687 33 12.7565 33 17Z" stroke="white" stroke-width="2" stroke-linecap="round" stroke-linejoin="round"/>
</svg>
