<svg width="24" height="24" viewBox="0 0 24 24" fill="none" xmlns="http://www.w3.org/2000/svg">
<path d="M12 7.11111V23M12 7.11111V4.66667C12 4.1832 12.1434 3.71059 12.412 3.30861C12.6806 2.90662 13.0623 2.59331 13.509 2.4083C13.9557 2.22328 14.4472 2.17487 14.9213 2.26919C15.3955 2.36351 15.8311 2.59632 16.1729 2.93818C16.5148 3.28005 16.7476 3.7156 16.8419 4.18978C16.9362 4.66396 16.8878 5.15545 16.7028 5.60212C16.5178 6.04878 16.2045 6.43055 15.8025 6.69915C15.4005 6.96775 14.9279 7.11111 14.4444 7.11111H12ZM12 7.11111V4.05556C12 3.45122 11.8208 2.86046 11.485 2.35798C11.1493 1.8555 10.6721 1.46386 10.1138 1.23259C9.55543 1.00132 8.94105 0.940814 8.34833 1.05871C7.75561 1.17661 7.21117 1.46763 6.78384 1.89495C6.35651 2.32228 6.0655 2.86673 5.9476 3.45945C5.8297 4.05217 5.89021 4.66654 6.12148 5.22487C6.35275 5.7832 6.74439 6.26041 7.24687 6.59616C7.74935 6.93191 8.34011 7.11111 8.94444 7.11111H12ZM3.44444 12H20.5556M3.44444 12C2.79614 12 2.17438 11.7425 1.71596 11.284C1.25754 10.8256 1 10.2039 1 9.55556C1 8.90725 1.25754 8.2855 1.71596 7.82707C2.17438 7.36865 2.79614 7.11111 3.44444 7.11111H20.5556C21.2039 7.11111 21.8256 7.36865 22.284 7.82707C22.7425 8.2855 23 8.90725 23 9.55556C23 10.2039 22.7425 10.8256 22.284 11.284C21.8256 11.7425 21.2039 12 20.5556 12M3.44444 12V20.5556C3.44444 21.2039 3.70198 21.8256 4.16041 22.284C4.61883 22.7425 5.24058 23 5.88889 23H18.1111C18.7594 23 19.3812 22.7425 19.8396 22.284C20.298 21.8256 20.5556 21.2039 20.5556 20.5556V12" stroke="white" stroke-width="2" stroke-linecap="round" stroke-linejoin="round"/>
</svg>
