<svg width="180" height="181" viewBox="0 0 180 181" fill="none" xmlns="http://www.w3.org/2000/svg">
<g clip-path="url(#clip0_565_235)">
<path d="M126.642 180.345H48.3497C39.8618 180.345 32.9563 173.441 32.9563 164.955V15.3898C32.9563 6.90389 39.8618 0 48.3497 0H126.642C135.13 0 142.035 6.90389 142.035 15.3898V164.955C142.035 173.441 135.13 180.345 126.642 180.345Z" fill="#3F3D56"/>
<path d="M142.035 55.0149C141.676 55.0149 141.384 55.3069 141.384 55.666V76.5C141.384 76.8591 141.676 77.1511 142.035 77.1511C142.395 77.1511 142.687 76.8591 142.687 76.5V55.666C142.687 55.3069 142.395 55.0149 142.035 55.0149Z" fill="#3F3D56"/>
<path d="M140.57 15.3899V164.952C140.57 172.339 134.82 178.381 127.549 178.849H127.546C127.439 178.856 127.331 178.862 127.22 178.866C127.028 178.875 126.836 178.879 126.641 178.879C126.641 178.879 125.925 178.827 124.616 178.729C123.294 178.631 121.369 178.485 118.969 178.293C118.25 178.237 117.491 178.176 116.69 178.11C115.095 177.98 113.343 177.837 111.464 177.674C110.715 177.612 109.94 177.544 109.149 177.476C105.105 177.127 100.576 176.72 95.7992 176.258C94.9917 176.183 94.1776 176.105 93.3571 176.024C93.1422 176.001 92.924 175.981 92.7059 175.959C89.3 175.623 85.7997 175.262 82.2864 174.878C82.0682 174.855 81.8501 174.832 81.6352 174.81C75.5821 174.142 69.5062 173.416 63.8211 172.635C59.4482 172.036 55.3064 171.404 51.588 170.75C50.3767 170.535 49.211 170.32 48.0975 170.102C47.8793 170.06 47.6611 170.018 47.4462 169.972C39.5763 168.397 34.4219 166.697 34.4219 164.952V15.3899C34.4219 7.69757 40.6573 1.46362 48.3514 1.46362H56.6675C57.996 1.46362 59.064 2.49881 59.1779 3.82373C59.1877 3.91163 59.1975 3.99951 59.2137 4.08741C59.4547 5.41885 60.6757 6.34661 62.0303 6.34661H112.962C114.317 6.34661 115.538 5.41885 115.779 4.08741C115.795 3.99951 115.805 3.91163 115.814 3.82373C115.928 2.49881 116.996 1.46362 118.325 1.46362H126.641C134.335 1.46362 140.57 7.69757 140.57 15.3899Z" fill="white"/>
<path d="M74.8558 151.373C74.9047 151.591 74.947 151.805 74.9893 152.024H51.5162C49.9988 152.024 48.7094 153.016 48.2633 154.387C48.1754 154.244 48.0843 154.101 47.9963 153.957V153.954C48.0224 153.726 48.0484 153.498 48.0777 153.27C48.5434 149.589 49.4551 145.972 50.7933 142.508C52.6851 142.834 54.4857 141.564 54.8146 139.673C54.9872 138.664 54.7071 137.625 54.0462 136.841L53.9289 135.874L54.0494 135.659C56.638 131.196 62.3557 129.679 66.8165 132.267C68.9363 133.494 70.4894 135.509 71.1374 137.873C72.3682 142.336 73.8985 146.841 74.8558 151.373Z" fill="#FAFAFA"/>
<path d="M138.057 114.604L137.998 114.815C136.725 115.157 135.474 115.577 134.257 116.072C133.56 116.358 132.873 116.668 132.196 117.003C129.864 118.168 128.92 121 130.089 123.331C130.678 124.513 131.74 125.392 133.013 125.756L133.104 125.782L133.299 125.838C130.61 130.509 127.139 134.686 123.036 138.182C117.126 156.741 101.78 156.643 86.3042 149.078L86.2944 149.074C85.1027 152.33 83.7644 155.523 82.2862 158.655C82.0713 159.107 81.8564 159.556 81.635 160.006V155.442C81.635 155.149 81.5991 154.862 81.5275 154.592C81.6578 154.302 81.7815 154.013 81.9052 153.72C85.8809 144.37 88.5639 134.49 89.8533 124.357C90.3515 120.401 90.6283 116.423 90.6836 112.439C90.726 109.174 90.6218 105.912 90.3776 102.657C89.023 84.9868 83.4974 67.8898 74.2501 52.7688C69.3041 49.2043 65.5694 44.2073 63.5506 38.4552C62.8148 36.3881 62.3849 34.2233 62.271 32.0292C62.8603 32.1854 65.6703 23.2691 65.2861 22.6538C66.2825 21.4917 67.8552 21.049 68.9232 19.9291C74.2306 14.3495 80.3455 16.2116 82.5564 24.9749C89.0816 29.3663 88.4174 35.2064 83.4356 40.2782C80.2674 43.5042 79.2841 48.283 76.4187 51.802C76.6238 52.1471 76.842 52.4856 77.0471 52.8307C80.8112 59.1656 83.9435 65.852 86.4019 72.7988C86.5256 65.38 88.4076 58.0945 91.8949 51.5448C95.3594 45.4671 101.022 40.6949 106.108 35.7012C109.872 31.951 115.967 31.9608 119.718 35.724C121.519 37.5307 122.528 39.9787 122.528 42.5276L122.522 42.775C121.825 43.0615 121.138 43.3707 120.461 43.706C118.129 44.8714 117.188 47.7068 118.354 50.0344C118.943 51.216 120.005 52.0982 121.278 52.4596L121.369 52.4856C120.842 54.8067 120.141 57.0821 119.269 59.2958C122.16 81.7673 109.009 88.1672 91.6116 86.341C91.2013 86.4907 90.8041 86.6405 90.3971 86.7772C92.5201 96.5269 93.3634 106.514 92.9075 116.479C92.621 122.358 91.8591 128.204 90.6315 133.96L90.6869 133.758C92.7577 127.446 96.9418 122.042 102.536 118.458C110.836 113.227 121.747 112.289 130.486 108.344C133.185 107.055 136.415 108.197 137.705 110.896C138.258 112.051 138.382 113.363 138.056 114.604L138.057 114.604Z" fill="#FAFAFA"/>
<path d="M32.631 39.3894C32.2718 39.3894 31.9797 39.6814 31.9797 40.0405V45.249C31.9797 45.6081 32.2718 45.9 32.631 45.9C32.9901 45.9 33.2822 45.6081 33.2822 45.249V40.0405C33.2822 39.6814 32.9901 39.3894 32.631 39.3894Z" fill="#3F3D56"/>
<path d="M32.631 55.0149C32.2718 55.0149 31.9797 55.3069 31.9797 55.666V65.7575C31.9797 66.1165 32.2718 66.4085 32.631 66.4085C32.9901 66.4085 33.2822 66.1165 33.2822 65.7575V55.666C33.2822 55.3069 32.9901 55.0149 32.631 55.0149Z" fill="#3F3D56"/>
<path d="M32.631 69.3384C32.2718 69.3384 31.9797 69.6304 31.9797 69.9894V80.0809C31.9797 80.44 32.2718 80.732 32.631 80.732C32.9901 80.732 33.2822 80.44 33.2822 80.0809V69.9894C33.2822 69.6304 32.9901 69.3384 32.631 69.3384Z" fill="#3F3D56"/>
<path d="M55.9118 3.74365H44.5155C44.1558 3.74365 43.8643 4.03514 43.8643 4.39472V4.72025C43.8643 5.07982 44.1558 5.37131 44.5155 5.37131H55.9118C56.2714 5.37131 56.563 5.07982 56.563 4.72025V4.39472C56.563 4.03514 56.2714 3.74365 55.9118 3.74365Z" fill="#3F3D56"/>
<path d="M120.383 5.37135C121.102 5.37135 121.685 4.78836 121.685 4.06922C121.685 3.35007 121.102 2.76709 120.383 2.76709C119.663 2.76709 119.08 3.35007 119.08 4.06922C119.08 4.78836 119.663 5.37135 120.383 5.37135Z" fill="#3F3D56"/>
<path d="M123.964 5.37135C124.684 5.37135 125.267 4.78836 125.267 4.06922C125.267 3.35007 124.684 2.76709 123.964 2.76709C123.245 2.76709 122.662 3.35007 122.662 4.06922C122.662 4.78836 123.245 5.37135 123.964 5.37135Z" fill="#3F3D56"/>
<path d="M127.546 5.37135C128.265 5.37135 128.848 4.78836 128.848 4.06922C128.848 3.35007 128.265 2.76709 127.546 2.76709C126.827 2.76709 126.243 3.35007 126.243 4.06922C126.243 4.78836 126.827 5.37135 127.546 5.37135Z" fill="#3F3D56"/>
<path d="M116.801 20.183H58.1913C56.6651 20.183 55.4236 18.9417 55.4236 17.416C55.4236 15.8902 56.6651 14.6489 58.1913 14.6489H116.801C118.327 14.6489 119.569 15.8902 119.569 17.416C119.569 18.9417 118.327 20.183 116.801 20.183Z" fill="#E6E6E6"/>
<path d="M59.1681 18.7182C58.2704 18.7182 57.54 17.988 57.54 17.0906C57.54 16.1931 58.2704 15.4629 59.1681 15.4629C60.0657 15.4629 60.7961 16.1931 60.7961 17.0906C60.7961 17.988 60.0657 18.7182 59.1681 18.7182ZM59.1681 16.114C58.6294 16.114 58.1913 16.552 58.1913 17.0906C58.1913 17.6291 58.6294 18.0671 59.1681 18.0671C59.7067 18.0671 60.1449 17.6291 60.1449 17.0906C60.1449 16.552 59.7067 16.114 59.1681 16.114Z" fill="white"/>
<path d="M61.6728 19.8244C61.5929 19.8244 61.513 19.7953 61.4502 19.7363L59.9221 18.3047C59.7908 18.1818 59.7841 17.9758 59.9072 17.8446C60.0299 17.713 60.236 17.7065 60.3673 17.8297L61.8953 19.2614C62.0267 19.3842 62.0333 19.5902 61.9103 19.7214C61.8462 19.7899 61.7596 19.8244 61.6728 19.8244H61.6728Z" fill="white"/>
<path d="M59.0053 75.198C58.7359 75.198 58.5168 75.417 58.5168 75.6863V76.0118C58.5168 76.2811 58.7359 76.5001 59.0053 76.5001H70.4016C70.6709 76.5001 70.89 76.2811 70.89 76.0118V75.6863C70.89 75.417 70.6709 75.198 70.4016 75.198H59.0053Z" fill="#3F3D56"/>
<path d="M78.2161 70.3151H51.5162C49.2719 70.3151 47.446 68.4897 47.446 66.2459V39.5523C47.446 37.3086 49.2719 35.4832 51.5162 35.4832H78.2161C80.4604 35.4832 82.2862 37.3086 82.2862 39.5523V66.2459C82.2862 68.4897 80.4604 70.3151 78.2161 70.3151ZM51.5162 36.1342C49.628 36.1342 48.0973 37.6645 48.0973 39.5523V66.2459C48.0973 68.1337 49.628 69.664 51.5162 69.664H70.2188C76.5238 69.664 81.635 64.554 81.635 58.2505V39.5523C81.635 37.6645 80.1043 36.1342 78.2161 36.1342H51.5162Z" fill="#F2F2F2"/>
<path d="M55.4235 38.9011C53.3587 38.9011 51.679 40.5804 51.679 42.6447V48.5043C51.679 50.5686 53.3587 52.2479 55.4235 52.2479H61.2844C63.3492 52.2479 65.0289 50.5686 65.0289 48.5043V42.6447C65.0289 40.5804 63.3492 38.9011 61.2844 38.9011H55.4235Z" fill="#F2F2F2"/>
<path d="M70.7272 38.9011C68.6624 38.9011 66.9827 40.5804 66.9827 42.6447V48.5043C66.9827 50.5686 68.6624 52.2479 70.7272 52.2479H76.5881C78.6529 52.2479 80.3326 50.5686 80.3326 48.5043V42.6447C80.3326 40.5804 78.6529 38.9011 76.5881 38.9011H70.7272Z" fill="#F2F2F2"/>
<path d="M54.2838 53.7129C52.219 53.7129 50.5393 55.3922 50.5393 57.4565V63.3161C50.5393 65.3804 52.219 67.0597 54.2838 67.0597H60.1448C62.2096 67.0597 63.8893 65.3804 63.8893 63.3161V57.4565C63.8893 55.3922 62.2096 53.7129 60.1448 53.7129H54.2838Z" fill="#F2F2F2"/>
<path d="M104.265 75.198C103.995 75.198 103.776 75.417 103.776 75.6863V76.0118C103.776 76.2811 103.995 76.5001 104.265 76.5001H115.661C115.93 76.5001 116.15 76.2811 116.15 76.0118V75.6863C116.15 75.417 115.93 75.198 115.661 75.198H104.265Z" fill="#3F3D56"/>
<path d="M59.0053 133.143C58.7359 133.143 58.5168 133.362 58.5168 133.631V133.957C58.5168 134.226 58.7359 134.445 59.0053 134.445H70.4016C70.6709 134.445 70.89 134.226 70.89 133.957V133.631C70.89 133.362 70.6709 133.143 70.4016 133.143H59.0053Z" fill="#3F3D56"/>
<path d="M78.2161 128.26H51.5162C49.2719 128.26 47.446 126.434 47.446 124.191V97.4969C47.446 95.2531 49.2719 93.4277 51.5162 93.4277H78.2161C80.4604 93.4277 82.2862 95.2531 82.2862 97.4969V124.191C82.2862 126.434 80.4604 128.26 78.2161 128.26ZM51.5162 94.0788C49.628 94.0788 48.0973 95.6091 48.0973 97.4969V124.191C48.0973 126.078 49.628 127.609 51.5162 127.609H70.5444C76.6696 127.609 81.635 122.644 81.635 116.521V97.4969C81.635 95.6091 80.1043 94.0788 78.2161 94.0788H51.5162Z" fill="#F2F2F2"/>
<path d="M54.2838 96.6831C52.219 96.6831 50.5393 98.3624 50.5393 100.427V106.286C50.5393 108.351 52.219 110.03 54.2838 110.03H60.1448C62.2096 110.03 63.8893 108.351 63.8893 106.286V100.427C63.8893 98.3624 62.2096 96.6831 60.1448 96.6831H54.2838Z" fill="#F2F2F2"/>
<path d="M69.5875 96.6831C67.5227 96.6831 65.843 98.3624 65.843 100.427V106.286C65.843 108.351 67.5227 110.03 69.5875 110.03H75.4485C77.5133 110.03 79.193 108.351 79.193 106.286V100.427C79.193 98.3624 77.5133 96.6831 75.4485 96.6831H69.5875Z" fill="#F2F2F2"/>
<path d="M54.2838 111.658C52.219 111.658 50.5393 113.337 50.5393 115.401V121.261C50.5393 123.325 52.219 125.005 54.2838 125.005H60.1448C62.2096 125.005 63.8893 123.325 63.8893 121.261V115.401C63.8893 113.337 62.2096 111.658 60.1448 111.658H54.2838Z" fill="#F2F2F2"/>
<path d="M104.265 133.143C103.995 133.143 103.776 133.362 103.776 133.631V133.957C103.776 134.226 103.995 134.445 104.265 134.445H115.661C115.93 134.445 116.15 134.226 116.15 133.957V133.631C116.15 133.362 115.93 133.143 115.661 133.143H104.265Z" fill="#3F3D56"/>
<path d="M123.476 128.26H96.7759C94.5316 128.26 92.7058 126.434 92.7058 124.191V97.4969C92.7058 95.2531 94.5316 93.4277 96.7759 93.4277H123.476C125.72 93.4277 127.546 95.2531 127.546 97.4969V124.191C127.546 126.434 125.72 128.26 123.476 128.26ZM96.7759 94.0788C94.8877 94.0788 93.357 95.6091 93.357 97.4969V124.191C93.357 126.078 94.8877 127.609 96.7759 127.609H116.018C122.025 127.609 126.895 122.74 126.895 116.735V97.4969C126.895 95.6091 125.364 94.0788 123.476 94.0788H96.7759Z" fill="#F2F2F2"/>
<path d="M99.5436 96.6831C97.4788 96.6831 95.7991 98.3624 95.7991 100.427V106.286C95.7991 108.351 97.4788 110.03 99.5436 110.03H105.405C107.469 110.03 109.149 108.351 109.149 106.286V100.427C109.149 98.3624 107.469 96.6831 105.405 96.6831H99.5436Z" fill="#F2F2F2"/>
<path d="M114.847 96.6831C112.782 96.6831 111.103 98.3624 111.103 100.427V106.286C111.103 108.351 112.782 110.03 114.847 110.03H120.708C122.773 110.03 124.453 108.351 124.453 106.286V100.427C124.453 98.3624 122.773 96.6831 120.708 96.6831H114.847Z" fill="#F2F2F2"/>
<path d="M99.5436 111.658C97.4788 111.658 95.7991 113.337 95.7991 115.401V121.261C95.7991 123.325 97.4788 125.005 99.5436 125.005H105.405C107.469 125.005 109.149 123.325 109.149 121.261V115.401C109.149 113.337 107.469 111.658 105.405 111.658H99.5436Z" fill="#F2F2F2"/>
<path d="M82.2862 155.44V174.878C82.0681 174.855 81.8499 174.832 81.635 174.81V155.44C81.635 155.147 81.5992 154.861 81.5275 154.591C81.1498 153.116 79.8083 152.022 78.2161 152.022H51.5162C49.9988 152.022 48.7094 153.015 48.2633 154.386C48.1559 154.718 48.0973 155.073 48.0973 155.44V170.102C47.8791 170.06 47.6609 170.018 47.446 169.972V155.44C47.446 154.643 47.6772 153.897 48.0777 153.269C48.8006 152.13 50.0705 151.371 51.5162 151.371H78.2161C79.8441 151.371 81.2508 152.332 81.9053 153.718C82.1495 154.239 82.2862 154.825 82.2862 155.44V155.44Z" fill="#F2F2F2"/>
<path d="M60.1448 154.628H54.2838C52.2194 154.628 50.5393 156.308 50.5393 158.372V164.231C50.5393 166.295 52.2194 167.975 54.2838 167.975H60.1448C62.2091 167.975 63.8893 166.295 63.8893 164.231V158.372C63.8893 156.308 62.2091 154.628 60.1448 154.628Z" fill="#F2F2F2"/>
<path d="M75.4485 154.628H69.5875C67.5232 154.628 65.843 156.308 65.843 158.372V164.231C65.843 166.295 67.5232 167.975 69.5875 167.975H75.4485C77.5129 167.975 79.193 166.295 79.193 164.231V158.372C79.193 156.308 77.5129 154.628 75.4485 154.628Z" fill="#F2F2F2"/>
<path d="M60.1449 169.601H54.2839C53.2257 169.601 52.2684 170.044 51.5879 170.75C55.3063 171.405 59.4481 172.036 63.821 172.635C63.4889 170.91 61.9683 169.601 60.1449 169.601Z" fill="#F2F2F2"/>
<path d="M127.546 155.44V178.866H126.895V155.44C126.895 153.556 125.361 152.022 123.476 152.022H96.7759C94.8907 152.022 93.357 153.556 93.357 155.44V176.024C93.1421 176.001 92.924 175.982 92.7058 175.959V155.44C92.7058 153.198 94.5325 151.371 96.7759 151.371H123.476C125.719 151.371 127.546 153.198 127.546 155.44Z" fill="#F2F2F2"/>
<path d="M105.405 154.628H99.5436C97.4792 154.628 95.7991 156.308 95.7991 158.372V164.231C95.7991 166.295 97.4792 167.975 99.5436 167.975H105.405C107.469 167.975 109.149 166.295 109.149 164.231V158.372C109.149 156.308 107.469 154.628 105.405 154.628Z" fill="#F2F2F2"/>
<path d="M120.708 154.628H114.847C112.783 154.628 111.103 156.308 111.103 158.372V164.231C111.103 166.295 112.783 167.975 114.847 167.975H120.708C122.772 167.975 124.453 166.295 124.453 164.231V158.372C124.453 156.308 122.772 154.628 120.708 154.628Z" fill="#F2F2F2"/>
<path d="M105.405 169.601H99.5436C97.4792 169.601 95.7991 171.281 95.7991 173.345V176.258C100.576 176.72 105.105 177.127 109.149 177.476V173.345C109.149 171.281 107.469 169.601 105.405 169.601Z" fill="#F2F2F2"/>
<path d="M67.3829 111.602C66.5016 111.602 65.7847 112.319 65.7847 113.2V115.701C65.7847 116.582 66.5016 117.299 67.3829 117.299H69.8846C70.7659 117.299 71.4828 116.582 71.4828 115.701V113.2C71.4828 112.319 70.7659 111.602 69.8846 111.602H67.3829Z" fill="#F2F2F2"/>
<path d="M75.1976 111.602C74.3163 111.602 73.5994 112.319 73.5994 113.2V115.701C73.5994 116.582 74.3163 117.299 75.1976 117.299H77.6993C78.5806 117.299 79.2975 116.582 79.2975 115.701V113.2C79.2975 112.319 78.5806 111.602 77.6993 111.602H75.1976Z" fill="#F2F2F2"/>
<path d="M67.3829 54.3081C66.5016 54.3081 65.7847 55.0249 65.7847 55.906V58.407C65.7847 59.2881 66.5016 60.0049 67.3829 60.0049H69.8846C70.7659 60.0049 71.4828 59.2881 71.4828 58.407V55.906C71.4828 55.0249 70.7659 54.3081 69.8846 54.3081H67.3829Z" fill="#F2F2F2"/>
<path d="M75.1976 54.3081C74.3163 54.3081 73.5994 55.0249 73.5994 55.906V58.407C73.5994 59.2881 74.3163 60.0049 75.1976 60.0049H77.6993C78.5806 60.0049 79.2975 59.2881 79.2975 58.407V55.906C79.2975 55.0249 78.5806 54.3081 77.6993 54.3081H75.1976Z" fill="#F2F2F2"/>
<path d="M115.202 169.602H112.701C111.819 169.602 111.103 170.318 111.103 171.201V173.701C111.103 174.583 111.819 175.299 112.701 175.299H115.202C116.084 175.299 116.801 174.583 116.801 173.701V171.201C116.801 170.318 116.084 169.602 115.202 169.602Z" fill="#F2F2F2"/>
<path d="M123.017 169.602H120.516C119.634 169.602 118.917 170.318 118.917 171.201V173.701C118.917 174.583 119.634 175.299 120.516 175.299H123.017C123.899 175.299 124.615 174.583 124.615 173.701V171.201C124.615 170.318 123.899 169.602 123.017 169.602Z" fill="#F2F2F2"/>
<path d="M115.202 177.088H112.701C112.203 177.088 111.757 177.316 111.464 177.674C113.343 177.837 115.095 177.98 116.69 178.111C116.462 177.512 115.883 177.088 115.202 177.088Z" fill="#F2F2F2"/>
<path d="M123.017 177.088H120.516C119.77 177.088 119.142 177.599 118.969 178.293C121.369 178.485 123.294 178.631 124.616 178.729V178.687C124.616 177.805 123.899 177.088 123.017 177.088Z" fill="#F2F2F2"/>
<path d="M129.571 39.5665L130.667 45.0316L127.632 46.0932L126.679 40.274C126.539 40.1601 126.414 40.0243 126.308 39.8669C125.735 39.0108 125.964 37.852 126.82 37.2785C127.676 36.705 128.835 36.9341 129.409 37.7901C129.775 38.3361 129.813 39.0046 129.571 39.5665V39.5665Z" fill="#A0616A"/>
<path d="M145.444 75.3501L149.887 70.5654L135.644 55.9999C135.644 55.9999 135.062 55.4529 135.455 55.3771C135.848 55.3013 135.253 54.7123 135.253 54.7123C135.253 54.7123 134.326 53.8313 135.07 54.1062C135.814 54.3812 134.871 53.4494 134.871 53.4494L131.535 42.4402L130.943 40.4875L125.961 43.4604C125.961 43.4604 126.006 43.8383 126.094 44.483C126.538 47.7353 128.1 57.7767 130.736 60.3285C133.895 63.3861 145.444 75.3501 145.444 75.3501L145.444 75.3501Z" fill="#CB60C7"/>
<path d="M132.909 177.309L129.771 177.309L128.278 165.208L132.91 165.208L132.909 177.309Z" fill="#A0616A"/>
<path d="M133.019 180.582L123.369 180.582V180.46C123.37 178.386 125.051 176.705 127.125 176.705H127.126L128.888 175.368L132.177 176.705L133.02 176.705L133.019 180.582Z" fill="#2F2E41"/>
<path d="M158.509 174.234L155.542 175.254L150.193 164.296L154.573 162.791L158.509 174.234Z" fill="#A0616A"/>
<path d="M159.678 177.293L150.553 180.43L150.513 180.315C149.839 178.354 150.882 176.217 152.843 175.543L152.844 175.543L154.076 173.705L157.621 173.9L158.417 173.626L159.678 177.293Z" fill="#2F2E41"/>
<path d="M152.653 96.3303H131.609C131.609 96.3303 130.585 105.439 130.205 104.886C129.825 104.333 129.935 105.136 130.043 105.874C130.151 106.612 129.079 107.067 129.778 107.491C130.476 107.914 130.225 108.7 129.537 108.958C128.848 109.216 129.174 111.169 129.174 111.169L125.592 146.137L128.523 172.369H133.407L139.919 124.516V148.931L152.943 170.742L157.176 169.114L151.966 145.676L155.874 102.38L152.653 96.3303V96.3303Z" fill="#2F2E41"/>
<path d="M156.199 98.7991L154.591 100.563L130.151 101.403L129.174 99.1246L134.058 88.0565L139.268 65.5948L141.547 60.7118V60.1748C141.547 60.0998 141.529 60.0258 141.496 59.9587C141.356 59.6789 141.515 59.342 141.82 59.2717L141.873 58.4331L141.221 58.7586L145.454 56.8054L148.938 57.1472L149.036 57.4565L149.762 58.0131C152.787 60.3244 154.532 63.9346 154.464 67.74L154.246 79.9182L156.199 98.7991Z" fill="#3F3D56"/>
<path d="M141.957 55.1705C142.103 55.204 142.248 55.2331 142.393 55.2554C142.845 55.3291 143.296 55.3515 143.736 55.3247C145.072 55.2554 146.333 54.7617 147.351 53.9486C148.428 53.0907 149.233 51.8777 149.57 50.4346C150.363 47.0278 148.243 43.6188 144.835 42.8258C141.477 42.0416 138.119 44.0879 137.261 47.4076C137.247 47.459 137.234 47.5081 137.223 47.5595C136.429 50.9685 138.548 54.3752 141.957 55.1705H141.957Z" fill="#A0616A"/>
<path d="M132.329 99.1288L135.59 94.6074L138.433 96.1092L134.816 100.767C134.827 100.947 134.813 101.131 134.769 101.315C134.532 102.318 133.527 102.938 132.524 102.701C131.521 102.464 130.9 101.459 131.137 100.456C131.289 99.8167 131.753 99.334 132.329 99.1288Z" fill="#A0616A"/>
<path d="M147.762 63.1533H141.232L140.245 83.4991C140.245 83.4991 140.239 84.2976 139.916 84.0611C139.593 83.8246 139.566 84.661 139.566 84.661C139.566 84.661 139.551 85.9401 139.247 85.2079C138.942 84.4757 138.901 85.8006 138.901 85.8006L133.1 95.735L132.071 97.497L137.64 99.1246C137.64 99.1246 137.887 98.8351 138.299 98.332C140.381 95.7937 146.68 87.8179 146.757 84.1501C146.849 79.7555 147.762 63.1533 147.762 63.1533Z" fill="#CB60C7"/>
<path d="M139.268 67.8736C139.268 67.8736 144.478 61.0374 149.036 67.5481L148.059 59.0842L143.077 58.1669C142.785 58.1356 142.533 58.3699 142.542 58.6635L139.268 67.8736Z" fill="#3F3D56"/>
<path d="M141.221 61.0374L141.205 59.9111L141.055 59.6702L141.221 59.4097L141.248 59.3512L141.873 56.8055L147.441 54.8523L148.938 57.1473C146.688 58.6643 146.177 61.0927 141.221 61.0374Z" fill="#CB60C7"/>
<path d="M146.478 54.23L145.935 50.1563C145.881 49.752 145.355 49.63 145.129 49.9694H144.152L143.175 46.7141C143.175 46.7141 142.803 48.1876 142.173 47.8264C141.48 47.4288 140.612 47.6282 139.84 47.8382L140.192 46.9032L138.624 47.3317L138.835 46.6682L137.86 46.9803C138.028 46.8556 137.877 46.559 137.67 46.527C137.464 46.495 136.663 47.3651 136.337 47.3651C136.069 47.3651 135.805 47.1499 135.597 46.9793C135.048 46.5269 134.774 44.256 135.035 43.7843C135.519 42.9095 136.618 43.2004 137.314 42.4822C137.469 42.3221 139.11 42.3141 139.268 42.1566C139.462 41.9624 140.868 41.2675 141.143 41.2651C141.418 41.2627 141.678 41.6065 141.499 41.8152C141.627 41.4011 142.16 41.2943 142.593 41.3027C142.898 41.3086 143.848 40.5021 144.152 40.529C144.806 40.5868 144.814 41.4779 145.468 41.5357C145.997 41.5824 146.624 41.6971 146.832 42.1849C146.933 42.4232 146.903 42.6936 146.91 42.9526C146.918 43.2116 146.986 43.5004 147.206 43.6364C147.399 43.7548 147.656 43.7167 147.849 43.6008C148.043 43.4848 148.187 43.3036 148.327 43.1263C148.538 43.8101 149.727 45.4705 149.938 46.1543C150.152 46.8461 150.366 47.541 150.476 48.2568C150.808 50.4389 148.458 52.7575 146.945 54.3653" fill="#2F2E41"/>
<path d="M96.7758 35.8086C94.711 35.8086 93.0312 37.4879 93.0312 39.5522V66.2459C93.0312 68.3102 94.711 69.9895 96.7758 69.9895H123.476C125.54 69.9895 127.22 68.3102 127.22 66.2459V39.5522C127.22 37.4879 125.54 35.8086 123.476 35.8086H96.7758Z" fill="#F2F2F2"/>
<path d="M99.5436 38.7383C97.4788 38.7383 95.7991 40.4176 95.7991 42.4819V48.3415C95.7991 50.4058 97.4788 52.0851 99.5436 52.0851H105.405C107.469 52.0851 109.149 50.4058 109.149 48.3415V42.4819C109.149 40.4176 107.469 38.7383 105.405 38.7383H99.5436Z" fill="#CB60C7"/>
<path d="M114.847 38.7383C112.782 38.7383 111.103 40.4176 111.103 42.4819V48.3415C111.103 50.4058 112.782 52.0851 114.847 52.0851H120.708C122.773 52.0851 124.453 50.4058 124.453 48.3415V42.4819C124.453 40.4176 122.773 38.7383 120.708 38.7383H114.847Z" fill="#CB60C7"/>
<path d="M99.5436 53.7129C97.4788 53.7129 95.7991 55.3922 95.7991 57.4565V63.3161C95.7991 65.3804 97.4788 67.0597 99.5436 67.0597H105.405C107.469 67.0597 109.149 65.3804 109.149 63.3161V57.4565C109.149 55.3922 107.469 53.7129 105.405 53.7129H99.5436Z" fill="white"/>
<path d="M112.701 53.7129C111.819 53.7129 111.103 54.4297 111.103 55.3108V57.8118C111.103 58.6929 111.819 59.4097 112.701 59.4097H115.202C116.084 59.4097 116.801 58.6929 116.801 57.8118V55.3108C116.801 54.4297 116.084 53.7129 115.202 53.7129H112.701Z" fill="white"/>
<path d="M120.516 53.7129C119.634 53.7129 118.917 54.4297 118.917 55.3108V57.8118C118.917 58.6929 119.634 59.4097 120.516 59.4097H123.017C123.898 59.4097 124.615 58.6929 124.615 57.8118V55.3108C124.615 54.4297 123.898 53.7129 123.017 53.7129H120.516Z" fill="white"/>
<path d="M112.701 61.2002C111.819 61.2002 111.103 61.917 111.103 62.7981V65.2991C111.103 66.1802 111.819 66.897 112.701 66.897H115.202C116.084 66.897 116.801 66.1802 116.801 65.2991V62.7981C116.801 61.917 116.084 61.2002 115.202 61.2002H112.701Z" fill="white"/>
<path d="M120.516 61.2002C119.634 61.2002 118.917 61.917 118.917 62.7981V65.2991C118.917 66.1802 119.634 66.897 120.516 66.897H123.017C123.898 66.897 124.615 66.1802 124.615 65.2991V62.7981C124.615 61.917 123.898 61.2002 123.017 61.2002H120.516Z" fill="white"/>
<path d="M162.333 175.358C163.006 175.4 163.377 174.564 162.868 174.077L162.818 173.876C162.824 173.86 162.831 173.844 162.838 173.828C163.518 172.206 165.824 172.217 166.498 173.841C167.097 175.283 167.859 176.727 168.047 178.251C168.131 178.924 168.093 179.609 167.944 180.269C169.346 177.206 170.085 173.861 170.085 170.497C170.085 169.651 170.038 168.806 169.944 167.963C169.866 167.273 169.759 166.588 169.62 165.909C168.869 162.238 167.243 158.741 164.898 155.821C163.771 155.205 162.831 154.242 162.263 153.087C162.059 152.671 161.899 152.223 161.824 151.767C161.952 151.784 162.307 149.83 162.211 149.711C162.389 149.439 162.709 149.305 162.905 149.04C163.876 147.724 165.214 147.953 165.912 149.742C167.404 150.495 167.419 151.744 166.503 152.944C165.921 153.708 165.841 154.742 165.33 155.56C165.382 155.627 165.437 155.692 165.489 155.76C166.454 156.996 167.287 158.325 167.99 159.721C167.792 158.169 168.085 156.3 168.585 155.095C169.154 153.722 170.221 152.566 171.161 151.379C172.289 149.954 174.604 150.576 174.802 152.383C174.804 152.401 174.806 152.418 174.808 152.436C174.668 152.514 174.532 152.598 174.398 152.686C173.636 153.19 173.9 154.37 174.802 154.51L174.823 154.513C174.772 155.015 174.686 155.514 174.56 156.004C175.765 160.664 173.163 162.361 169.447 162.437C169.365 162.48 169.285 162.522 169.203 162.562C169.58 163.621 169.881 164.708 170.103 165.81C170.303 166.783 170.442 167.767 170.52 168.756C170.617 170.003 170.608 171.256 170.503 172.5L170.509 172.456C170.776 171.085 171.521 169.805 172.602 168.918C174.212 167.595 176.487 167.108 178.225 166.045C179.061 165.533 180.133 166.195 179.987 167.164L179.979 167.21C179.721 167.315 179.468 167.437 179.224 167.574C179.085 167.653 178.948 167.736 178.815 167.825C178.053 168.328 178.316 169.509 179.219 169.648L179.239 169.651C179.254 169.653 179.267 169.656 179.281 169.658C178.838 170.711 178.219 171.689 177.445 172.532C176.692 176.6 173.455 176.986 169.992 175.801H169.99C169.611 177.45 169.058 179.06 168.347 180.595H162.48C162.459 180.53 162.44 180.463 162.421 180.398C162.964 180.431 163.51 180.4 164.045 180.301C163.609 179.767 163.174 179.229 162.739 178.695C162.728 178.684 162.72 178.674 162.711 178.663C162.49 178.39 162.267 178.118 162.047 177.845L162.047 177.845C162.033 177.006 162.133 176.169 162.333 175.358L162.333 175.358Z" fill="#F2F2F2"/>
<path d="M0 180.613C0 180.828 0.172583 181 0.387494 181H179.567C179.782 181 179.954 180.828 179.954 180.613C179.954 180.398 179.782 180.225 179.567 180.225H0.387494C0.172583 180.225 0 180.398 0 180.613Z" fill="#CCCCCC"/>
</g>
<defs>
<clipPath id="clip0_565_235">
<rect width="180" height="181" fill="white"/>
</clipPath>
</defs>
</svg>
